<svg width="81" height="25" viewBox="0 0 81 25" fill="none" xmlns="http://www.w3.org/2000/svg">
<g clip-path="url(#clip0)">
<path d="M12.386 14.931C12.518 14.931 12.635 14.982 12.737 15.084L13.691 16.119C13.163 16.773 12.512 17.274 11.738 17.622C10.97 17.97 10.046 18.144 8.966 18.144C8 18.144 7.13 17.979 6.356 17.649C5.588 17.319 4.931 16.86 4.385 16.272C3.839 15.684 3.419 14.982 3.125 14.166C2.837 13.35 2.693 12.459 2.693 11.493C2.693 10.515 2.849 9.621 3.161 8.811C3.473 7.995 3.911 7.293 4.475 6.705C5.045 6.117 5.723 5.661 6.509 5.337C7.295 5.007 8.165 4.842 9.119 4.842C10.067 4.842 10.907 4.998 11.639 5.31C12.377 5.622 13.004 6.03 13.52 6.534L12.71 7.659C12.662 7.731 12.599 7.794 12.521 7.848C12.449 7.902 12.347 7.929 12.215 7.929C12.125 7.929 12.032 7.905 11.936 7.857C11.84 7.803 11.735 7.74 11.621 7.668C11.507 7.59 11.375 7.506 11.225 7.416C11.075 7.326 10.901 7.245 10.703 7.173C10.505 7.095 10.274 7.032 10.01 6.984C9.752 6.93 9.452 6.903 9.11 6.903C8.528 6.903 7.994 7.008 7.508 7.218C7.028 7.422 6.614 7.722 6.266 8.118C5.918 8.508 5.648 8.988 5.456 9.558C5.264 10.122 5.168 10.767 5.168 11.493C5.168 12.225 5.27 12.876 5.474 13.446C5.684 14.016 5.966 14.496 6.32 14.886C6.674 15.276 7.091 15.576 7.571 15.786C8.051 15.99 8.567 16.092 9.119 16.092C9.449 16.092 9.746 16.074 10.01 16.038C10.28 16.002 10.526 15.945 10.748 15.867C10.976 15.789 11.189 15.69 11.387 15.57C11.591 15.444 11.792 15.291 11.99 15.111C12.05 15.057 12.113 15.015 12.179 14.985C12.245 14.949 12.314 14.931 12.386 14.931ZM18.891 8.622C19.575 8.622 20.196 8.733 20.754 8.955C21.318 9.177 21.798 9.492 22.194 9.9C22.596 10.308 22.905 10.806 23.121 11.394C23.337 11.982 23.445 12.639 23.445 13.365C23.445 14.097 23.337 14.757 23.121 15.345C22.905 15.933 22.596 16.434 22.194 16.848C21.798 17.262 21.318 17.58 20.754 17.802C20.196 18.024 19.575 18.135 18.891 18.135C18.201 18.135 17.574 18.024 17.01 17.802C16.446 17.58 15.963 17.262 15.561 16.848C15.165 16.434 14.856 15.933 14.634 15.345C14.418 14.757 14.31 14.097 14.31 13.365C14.31 12.639 14.418 11.982 14.634 11.394C14.856 10.806 15.165 10.308 15.561 9.9C15.963 9.492 16.446 9.177 17.01 8.955C17.574 8.733 18.201 8.622 18.891 8.622ZM18.891 16.425C19.659 16.425 20.226 16.167 20.592 15.651C20.964 15.135 21.15 14.379 21.15 13.383C21.15 12.387 20.964 11.628 20.592 11.106C20.226 10.584 19.659 10.323 18.891 10.323C18.111 10.323 17.532 10.587 17.154 11.115C16.782 11.637 16.596 12.393 16.596 13.383C16.596 14.373 16.782 15.129 17.154 15.651C17.532 16.167 18.111 16.425 18.891 16.425ZM30.937 11.124C30.685 10.818 30.409 10.602 30.109 10.476C29.815 10.35 29.497 10.287 29.155 10.287C28.819 10.287 28.516 10.35 28.246 10.476C27.976 10.602 27.745 10.794 27.553 11.052C27.361 11.304 27.214 11.628 27.112 12.024C27.01 12.414 26.959 12.876 26.959 13.41C26.959 13.95 27.001 14.409 27.085 14.787C27.175 15.159 27.301 15.465 27.463 15.705C27.625 15.939 27.823 16.11 28.057 16.218C28.291 16.32 28.552 16.371 28.84 16.371C29.302 16.371 29.695 16.275 30.019 16.083C30.343 15.891 30.649 15.618 30.937 15.264V11.124ZM33.16 4.626V18H31.801C31.507 18 31.321 17.865 31.243 17.595L31.054 16.704C30.682 17.13 30.253 17.475 29.767 17.739C29.287 18.003 28.726 18.135 28.084 18.135C27.58 18.135 27.118 18.03 26.698 17.82C26.278 17.61 25.915 17.307 25.609 16.911C25.309 16.509 25.075 16.014 24.907 15.426C24.745 14.838 24.664 14.166 24.664 13.41C24.664 12.726 24.757 12.09 24.943 11.502C25.129 10.914 25.396 10.404 25.744 9.972C26.092 9.54 26.509 9.204 26.995 8.964C27.481 8.718 28.027 8.595 28.633 8.595C29.149 8.595 29.59 8.676 29.956 8.838C30.322 9 30.649 9.219 30.937 9.495V4.626H33.16ZM37.6579 8.766V18H35.4259V8.766H37.6579ZM37.9639 6.075C37.9639 6.267 37.9249 6.447 37.8469 6.615C37.7689 6.783 37.6639 6.93 37.5319 7.056C37.4059 7.182 37.2559 7.284 37.0819 7.362C36.9079 7.434 36.7219 7.47 36.5239 7.47C36.3319 7.47 36.1489 7.434 35.9749 7.362C35.8069 7.284 35.6599 7.182 35.5339 7.056C35.4079 6.93 35.3059 6.783 35.2279 6.615C35.1559 6.447 35.1199 6.267 35.1199 6.075C35.1199 5.877 35.1559 5.691 35.2279 5.517C35.3059 5.343 35.4079 5.193 35.5339 5.067C35.6599 4.941 35.8069 4.842 35.9749 4.77C36.1489 4.692 36.3319 4.653 36.5239 4.653C36.7219 4.653 36.9079 4.692 37.0819 4.77C37.2559 4.842 37.4059 4.941 37.5319 5.067C37.6639 5.193 37.7689 5.343 37.8469 5.517C37.9249 5.691 37.9639 5.877 37.9639 6.075ZM42.0032 9.9C42.1892 9.714 42.3842 9.543 42.5882 9.387C42.7982 9.225 43.0172 9.09 43.2452 8.982C43.4792 8.868 43.7282 8.781 43.9922 8.721C44.2562 8.655 44.5442 8.622 44.8562 8.622C45.3602 8.622 45.8072 8.709 46.1972 8.883C46.5872 9.051 46.9112 9.291 47.1692 9.603C47.4332 9.909 47.6312 10.278 47.7632 10.71C47.9012 11.136 47.9702 11.607 47.9702 12.123V18H45.7472V12.123C45.7472 11.559 45.6182 11.124 45.3602 10.818C45.1022 10.506 44.7092 10.35 44.1812 10.35C43.7972 10.35 43.4372 10.437 43.1012 10.611C42.7652 10.785 42.4472 11.022 42.1472 11.322V18H39.9242V8.766H41.2832C41.5712 8.766 41.7602 8.901 41.8502 9.171L42.0032 9.9ZM53.4593 13.158C53.7353 13.158 53.9753 13.122 54.1793 13.05C54.3833 12.972 54.5513 12.867 54.6833 12.735C54.8213 12.603 54.9233 12.444 54.9893 12.258C55.0613 12.072 55.0973 11.868 55.0973 11.646C55.0973 11.19 54.9593 10.83 54.6833 10.566C54.4133 10.296 54.0053 10.161 53.4593 10.161C52.9133 10.161 52.5023 10.296 52.2263 10.566C51.9563 10.83 51.8213 11.19 51.8213 11.646C51.8213 11.862 51.8543 12.063 51.9203 12.249C51.9923 12.435 52.0943 12.597 52.2263 12.735C52.3643 12.867 52.5353 12.972 52.7393 13.05C52.9493 13.122 53.1893 13.158 53.4593 13.158ZM55.9703 18.414C55.9703 18.234 55.9163 18.087 55.8083 17.973C55.7003 17.859 55.5533 17.772 55.3673 17.712C55.1813 17.646 54.9623 17.598 54.7103 17.568C54.4643 17.538 54.2003 17.517 53.9183 17.505C53.6423 17.487 53.3543 17.472 53.0543 17.46C52.7603 17.448 52.4723 17.424 52.1903 17.388C51.9443 17.526 51.7433 17.688 51.5873 17.874C51.4373 18.06 51.3623 18.276 51.3623 18.522C51.3623 18.684 51.4013 18.834 51.4793 18.972C51.5633 19.116 51.6923 19.239 51.8663 19.341C52.0463 19.443 52.2773 19.521 52.5593 19.575C52.8413 19.635 53.1863 19.665 53.5943 19.665C54.0083 19.665 54.3653 19.632 54.6653 19.566C54.9653 19.506 55.2113 19.419 55.4033 19.305C55.6013 19.197 55.7453 19.065 55.8353 18.909C55.9253 18.759 55.9703 18.594 55.9703 18.414ZM58.1843 9.081V9.909C58.1843 10.173 58.0253 10.335 57.7073 10.395L56.8793 10.548C57.0053 10.866 57.0683 11.214 57.0683 11.592C57.0683 12.048 56.9753 12.462 56.7893 12.834C56.6093 13.2 56.3573 13.512 56.0333 13.77C55.7093 14.028 55.3253 14.229 54.8813 14.373C54.4433 14.511 53.9693 14.58 53.4593 14.58C53.2793 14.58 53.1053 14.571 52.9373 14.553C52.7693 14.535 52.6043 14.511 52.4423 14.481C52.1543 14.655 52.0103 14.85 52.0103 15.066C52.0103 15.252 52.0943 15.39 52.2623 15.48C52.4363 15.564 52.6643 15.624 52.9463 15.66C53.2283 15.696 53.5493 15.72 53.9093 15.732C54.2693 15.738 54.6383 15.756 55.0163 15.786C55.3943 15.816 55.7633 15.87 56.1233 15.948C56.4833 16.02 56.8043 16.137 57.0863 16.299C57.3683 16.461 57.5933 16.683 57.7613 16.965C57.9353 17.241 58.0223 17.598 58.0223 18.036C58.0223 18.444 57.9203 18.84 57.7163 19.224C57.5183 19.608 57.2273 19.95 56.8433 20.25C56.4653 20.55 55.9973 20.79 55.4393 20.97C54.8873 21.156 54.2573 21.249 53.5493 21.249C52.8533 21.249 52.2473 21.18 51.7313 21.042C51.2153 20.91 50.7863 20.73 50.4443 20.502C50.1023 20.28 49.8473 20.022 49.6793 19.728C49.5113 19.434 49.4273 19.128 49.4273 18.81C49.4273 18.378 49.5563 18.018 49.8143 17.73C50.0783 17.436 50.4383 17.202 50.8943 17.028C50.6483 16.902 50.4533 16.734 50.3093 16.524C50.1653 16.314 50.0933 16.038 50.0933 15.696C50.0933 15.558 50.1173 15.417 50.1653 15.273C50.2193 15.123 50.2943 14.976 50.3903 14.832C50.4923 14.688 50.6183 14.553 50.7683 14.427C50.9183 14.295 51.0953 14.178 51.2993 14.076C50.8313 13.824 50.4623 13.488 50.1923 13.068C49.9283 12.648 49.7963 12.156 49.7963 11.592C49.7963 11.136 49.8863 10.725 50.0663 10.359C50.2523 9.987 50.5073 9.672 50.8313 9.414C51.1613 9.15 51.5483 8.949 51.9923 8.811C52.4423 8.673 52.9313 8.604 53.4593 8.604C53.8553 8.604 54.2273 8.646 54.5753 8.73C54.9233 8.808 55.2413 8.925 55.5293 9.081H58.1843ZM61.8171 4.626V12.285H62.2311C62.3811 12.285 62.4981 12.267 62.5821 12.231C62.6721 12.189 62.7621 12.108 62.8521 11.988L65.1471 9.153C65.2431 9.027 65.3481 8.931 65.4621 8.865C65.5821 8.799 65.7351 8.766 65.9211 8.766H67.9551L65.0841 12.195C64.8801 12.465 64.6581 12.672 64.4181 12.816C64.5441 12.906 64.6551 13.011 64.7511 13.131C64.8531 13.251 64.9491 13.38 65.0391 13.518L68.1171 18H66.1101C65.9361 18 65.7861 17.973 65.6601 17.919C65.5341 17.859 65.4291 17.754 65.3451 17.604L62.9871 14.103C62.9031 13.965 62.8161 13.875 62.7261 13.833C62.6361 13.791 62.5011 13.77 62.3211 13.77H61.8171V18H59.5941V4.626H61.8171ZM77.1653 8.766V18H75.8063C75.5123 18 75.3263 17.865 75.2483 17.595L75.0953 16.857C74.7173 17.241 74.3003 17.553 73.8443 17.793C73.3883 18.027 72.8513 18.144 72.2333 18.144C71.7293 18.144 71.2823 18.06 70.8923 17.892C70.5083 17.718 70.1843 17.475 69.9203 17.163C69.6563 16.851 69.4553 16.482 69.3173 16.056C69.1853 15.624 69.1193 15.15 69.1193 14.634V8.766H71.3423V14.634C71.3423 15.198 71.4713 15.636 71.7293 15.948C71.9933 16.254 72.3863 16.407 72.9083 16.407C73.2923 16.407 73.6523 16.323 73.9883 16.155C74.3243 15.981 74.6423 15.744 74.9423 15.444V8.766H77.1653Z" fill="#011D46"/>
</g>
<defs>
<clipPath id="clip0">
<rect width="81" height="25" fill="white"/>
</clipPath>
</defs>
</svg>
