<svg width="1080" height="1080" viewBox="0 0 1080 1080" fill="none" xmlns="http://www.w3.org/2000/svg">
<path fill-rule="evenodd" clip-rule="evenodd" d="M512.754 383.468C523.417 368.27 529.621 350.073 529.621 330.516C529.621 277.265 483.622 234.097 426.879 234.097C384.182 234.097 347.569 258.538 332.058 293.325C280.886 308.247 243.21 351.976 240.517 404.328C189.945 427.09 155.008 475.725 155.008 532.048C155.008 582.335 182.858 626.494 224.82 651.581C215.642 665.248 210.331 681.443 210.331 698.806C210.331 747.692 252.437 787.322 304.379 787.322C311.164 787.322 317.782 786.646 324.16 785.361C324.145 786.013 324.137 786.667 324.137 787.322C324.137 836.209 366.244 875.839 418.185 875.839C470.127 875.839 512.234 836.209 512.234 787.322C512.234 774.843 509.49 762.968 504.539 752.2C515.392 736.913 521.718 718.553 521.718 698.806C521.718 674.01 511.744 651.4 495.355 634.317C507.95 618.312 515.395 598.52 515.395 577.097C515.395 552.471 505.558 530.001 489.369 512.96C513.843 495.336 529.621 467.607 529.621 436.419C529.621 416.863 523.417 398.666 512.754 383.468Z" fill="#468CA3"/>
<path d="M523.066 336C523.066 279.667 477.399 234 421.066 234C364.733 234 319.066 279.667 319.066 336" stroke="black" stroke-width="7" stroke-linecap="round"/>
<path d="M223.823 651.387C197.56 681.323 204.829 730.646 240.058 761.552C275.286 792.457 325.135 793.243 351.398 763.306" stroke="black" stroke-width="7" stroke-linecap="round"/>
<path d="M334.241 777.766C311.506 803.681 329.215 831.498 364.443 862.403C399.672 893.309 463.97 873.229 486.705 847.314" stroke="black" stroke-width="7" stroke-linecap="round"/>
<path d="M342.314 771.516C364.443 748.597 410.001 729.993 398.427 684.581C386.853 639.168 326.798 636.159 298.056 643.484" stroke="black" stroke-width="7" stroke-linecap="round"/>
<path d="M326.508 295.742C313.863 294.161 291.866 303.923 264.863 332.887C237.86 361.851 232.271 394.79 245.317 406.953" stroke="black" stroke-width="7" stroke-linecap="round"/>
<path d="M243.716 407.216C231.071 405.635 162.911 438.79 151.056 516.242C139.201 593.693 207.558 637.643 220.605 649.806" stroke="black" stroke-width="7" stroke-linecap="round"/>
<path d="M324.532 302.605C311.021 330.118 322.373 363.376 349.886 376.887C377.4 390.398 410.657 379.046 424.168 351.532" stroke="black" stroke-width="7" stroke-linecap="round"/>
<path d="M332.04 364.5C317.553 359.647 303.697 375.173 296.347 397.112C288.998 419.052 294.785 440.772 309.272 445.625" stroke="black" stroke-width="7" stroke-linecap="round"/>
<path d="M323.447 553C339.463 553 348.066 542.32 348.066 529.398C348.066 516.476 335.082 506 319.066 506" stroke="black" stroke-width="7" stroke-linecap="round"/>
<path d="M444.922 648.538C434.879 637.024 420.796 637.298 407.911 648.537C395.027 659.777 397.637 679.048 400.008 692.484" stroke="black" stroke-width="7" stroke-linecap="round"/>
<line x1="497.633" y1="528.399" x2="351.31" y2="526.891" stroke="black" stroke-width="7" stroke-linecap="round"/>
<path d="M539.313 373.196L630.782 373.196" stroke="#295185" stroke-width="10" stroke-linecap="round"/>
<path d="M539.105 456.212L628.322 456.153" stroke="#295185" stroke-width="10" stroke-linecap="round"/>
<path d="M532.782 544.728L627.703 544.819" stroke="#295185" stroke-width="10" stroke-linecap="round"/>
<path d="M720.879 547.872L931.895 547.872" stroke="#295185" stroke-width="10" stroke-linecap="round"/>
<path d="M720.879 456.212L862.347 414.29" stroke="#295185" stroke-width="10" stroke-linecap="round"/>
<path d="M654.492 456.212L697.169 456.212" stroke="#295185" stroke-width="10" stroke-linecap="round"/>
<path d="M654.492 546.606L697.169 546.606" stroke="#295185" stroke-width="10" stroke-linecap="round"/>
<path d="M539.105 625.341L627.725 625.266" stroke="#295185" stroke-width="10" stroke-linecap="round"/>
<path d="M535.943 705.954L624.564 705.879" stroke="#295185" stroke-width="10" stroke-linecap="round"/>
<path d="M626.831 705.919L727.992 763.613" stroke="#295185" stroke-width="10" stroke-linecap="round"/>
<path d="M720.379 627.677L857.605 667.984" stroke="#295185" stroke-width="10" stroke-linecap="round"/>
<path d="M654.492 625.659L697.959 625.659" stroke="#295185" stroke-width="10" stroke-linecap="round"/>
<path d="M633.153 372.403L737.476 317.871" stroke="#295185" stroke-width="10" stroke-linecap="round"/>
<rect x="487.066" y="193" width="57" height="735" fill="#2F5D6B"/>
<path d="M782.566 303C782.566 315.364 772.332 325.5 759.566 325.5C746.801 325.5 736.566 315.364 736.566 303C736.566 290.636 746.801 280.5 759.566 280.5C772.332 280.5 782.566 290.636 782.566 303Z" fill="#C4C4C4" stroke="#295185" stroke-width="7"/>
<path d="M777.566 775.5C777.566 788.266 767.43 798.5 755.066 798.5C742.702 798.5 732.566 788.266 732.566 775.5C732.566 762.734 742.702 752.5 755.066 752.5C767.43 752.5 777.566 762.734 777.566 775.5Z" fill="#C4C4C4" stroke="#295185" stroke-width="7"/>
<circle cx="896.066" cy="405" r="31.5" fill="#C4C4C4" stroke="#295185" stroke-width="7"/>
<circle cx="893.066" cy="678" r="31.5" fill="#C4C4C4" stroke="#295185" stroke-width="7"/>
<circle cx="973.066" cy="548" r="38.5" fill="#C4C4C4" stroke="#295185" stroke-width="7"/>
</svg>
