<svg width="29" height="29" viewBox="0 0 29 29" fill="none" xmlns="http://www.w3.org/2000/svg">
<path opacity="0.5" d="M10.8749 8.45833C10.8749 6.40417 12.4458 4.83333 14.4999 4.83333C16.5541 4.83333 18.1249 6.40417 18.1249 8.45833V10.875H20.5416V8.45833C20.5416 5.075 17.8833 2.41667 14.4999 2.41667C11.1166 2.41667 8.45825 5.075 8.45825 8.45833V10.875H10.8749V8.45833ZM16.3124 17.5208C16.3124 16.5542 15.4666 15.7083 14.4999 15.7083C13.5333 15.7083 12.6874 16.5542 12.6874 17.5208C12.6874 18.0042 12.9291 18.4875 13.2916 18.85V20.5417C13.2916 21.2667 13.7749 21.75 14.4999 21.75C15.2249 21.75 15.7083 21.2667 15.7083 20.5417V18.85C16.0708 18.4875 16.3124 18.0042 16.3124 17.5208Z" fill="#111453"/>
<path d="M20.5416 10.875H8.45825C6.40409 10.875 4.83325 12.4458 4.83325 14.5V22.9583C4.83325 25.0125 6.40409 26.5833 8.45825 26.5833H20.5416C22.5958 26.5833 24.1666 25.0125 24.1666 22.9583V14.5C24.1666 12.4458 22.5958 10.875 20.5416 10.875ZM15.7083 18.85V20.5417C15.7083 21.2667 15.2249 21.75 14.4999 21.75C13.7749 21.75 13.2916 21.2667 13.2916 20.5417V18.85C12.9291 18.4875 12.6874 18.0042 12.6874 17.5208C12.6874 16.5542 13.5333 15.7083 14.4999 15.7083C15.4666 15.7083 16.3124 16.5542 16.3124 17.5208C16.3124 18.0042 16.0708 18.4875 15.7083 18.85Z" fill="#FBAA87"/>
</svg>
