<svg width="49" height="34" viewBox="0 0 49 34" fill="none" xmlns="http://www.w3.org/2000/svg">
<path fill-rule="evenodd" clip-rule="evenodd" d="M37.0799 5.551C37.2292 5.66091 37.363 5.78987 37.4779 5.9345L37.985 5.84251L38.3224 6.61836L37.9041 6.91652C37.9311 7.09792 37.9334 7.28206 37.9108 7.46405L38.3347 7.75333L38.0165 8.53474L37.5071 8.45383C37.3959 8.60092 37.2651 8.73252 37.1181 8.84508L37.2103 9.34606L36.4232 9.67857L36.1252 9.26294C35.9387 9.2884 35.7495 9.2884 35.563 9.26294L35.2695 9.6819L34.4824 9.36823L34.5645 8.86614C34.4149 8.75652 34.281 8.62753 34.1664 8.48264L33.6593 8.57353L33.322 7.79767L33.7391 7.49952C33.7144 7.31559 33.7144 7.12926 33.7391 6.94533L33.3141 6.66935L33.6323 5.89349L34.1417 5.97329C34.2532 5.82645 34.384 5.69488 34.5307 5.58204L34.4385 5.07662L35.2256 4.74411L35.5281 5.15532C35.7144 5.12857 35.9035 5.12671 36.0903 5.14977L36.3827 4.73192L37.1754 5.04559L37.0933 5.54768L37.0799 5.551ZM36.1972 6.38782C36.0292 6.32135 35.845 6.30546 35.6678 6.34217C35.4907 6.37888 35.3286 6.46654 35.202 6.59407C35.0754 6.72159 34.99 6.88325 34.9566 7.05861C34.9232 7.23397 34.9433 7.41515 35.0143 7.57925C35.0854 7.74336 35.2042 7.883 35.3558 7.98055C35.5074 8.07809 35.6849 8.12914 35.8659 8.12725C36.0469 8.12536 36.2232 8.07061 36.3727 7.96992C36.5221 7.86924 36.6379 7.72714 36.7054 7.56159C36.7503 7.45162 36.7727 7.33403 36.7714 7.21552C36.7701 7.09701 36.7452 6.97992 36.698 6.87092C36.6508 6.76191 36.5823 6.66315 36.4963 6.58026C36.4104 6.49737 36.3087 6.43198 36.1972 6.38782Z" fill="#70CAC4"/>
<path fill-rule="evenodd" clip-rule="evenodd" d="M7.88868 7.13248C8.15826 7.33142 8.39987 7.56474 8.6072 7.82633L9.52474 7.66118L10.1308 9.05996L9.3707 9.60307C9.41908 9.93143 9.42248 10.2647 9.38081 10.594L10.1477 11.116L9.5731 12.5281L8.65667 12.374C8.45546 12.6403 8.21869 12.8785 7.95277 13.0823L8.12031 13.9867L6.70126 14.5908L6.15478 13.846C5.82167 13.8935 5.48364 13.8972 5.14953 13.8571L4.61879 14.6119L3.18625 14.0433L3.33355 13.1355C3.06396 12.9366 2.82234 12.7032 2.61503 12.4416L1.69861 12.6068L1.09253 11.208L1.84816 10.6693C1.79997 10.341 1.79619 10.0078 1.83691 9.67844L1.07117 9.15972L1.64688 7.74874L2.56668 7.89505C2.76879 7.62923 3.00545 7.39073 3.27058 7.18568L3.10304 6.27791L4.52209 5.68049L5.06969 6.42533C5.40281 6.37782 5.74084 6.3741 6.07495 6.41424L6.60456 5.65833L8.0371 6.22582L7.88868 7.13248V7.13248ZM6.29421 8.64653C5.99044 8.52615 5.65726 8.49727 5.33684 8.56355C5.01641 8.62984 4.72312 8.78831 4.49407 9.01892C4.26503 9.24953 4.11051 9.54191 4.05006 9.8591C3.98961 10.1763 4.02596 10.504 4.15449 10.8008C4.28303 11.0977 4.49798 11.3502 4.77216 11.5266C5.04634 11.703 5.36744 11.7953 5.69482 11.7918C6.02221 11.7882 6.34119 11.6891 6.61141 11.5069C6.88162 11.3246 7.09094 11.0675 7.21288 10.768C7.37601 10.3665 7.37089 9.9177 7.19866 9.51997C7.02643 9.12225 6.70115 8.80812 6.29421 8.64653V8.64653Z" fill="#60BFCC"/>
<path fill-rule="evenodd" clip-rule="evenodd" d="M13.6871 1.51405C13.8361 1.62398 13.9695 1.75294 14.084 1.89755L14.5911 1.80666L14.9285 2.58253L14.5113 2.88069C14.5366 3.06458 14.5366 3.25099 14.5113 3.43488L14.9352 3.72417L14.617 4.50003L14.1088 4.41912C13.9969 4.56633 13.8656 4.69827 13.7186 4.81149L13.8119 5.31137L13.0248 5.64388L12.7223 5.23267C12.5379 5.2565 12.3512 5.2565 12.1668 5.23267L11.8734 5.65053L11.0862 5.33686L11.1683 4.83476C11.0191 4.72513 10.8856 4.59613 10.7714 4.45126L10.2632 4.54215L9.92582 3.76628L10.3441 3.46813C10.3169 3.28635 10.315 3.10176 10.3385 2.91948L9.91345 2.6313L10.2317 1.84989L10.741 1.9308C10.8525 1.78362 10.9834 1.65168 11.1301 1.53844L11.0379 1.03855L11.825 0.70604L12.1275 1.11836C12.3137 1.09125 12.5028 1.08901 12.6897 1.11171L12.9832 0.693848L13.7703 1.00752L13.6893 1.50962L13.6871 1.51405ZM12.8044 2.35088C12.6363 2.28418 12.452 2.26809 12.2747 2.30462C12.0973 2.34115 11.9349 2.42868 11.8081 2.55614C11.6812 2.6836 11.5954 2.84527 11.5617 3.02073C11.528 3.19619 11.5478 3.37757 11.6186 3.54194C11.6894 3.70632 11.8081 3.84631 11.9596 3.94424C12.1111 4.04217 12.2886 4.09364 12.4698 4.09215C12.651 4.09065 12.8276 4.03626 12.9774 3.93585C13.1272 3.83543 13.2435 3.6935 13.3115 3.52798C13.3568 3.41788 13.3795 3.30007 13.3785 3.18129C13.3775 3.0625 13.3528 2.94508 13.3056 2.83575C13.2585 2.72641 13.19 2.62731 13.104 2.54411C13.018 2.46091 12.9162 2.39524 12.8044 2.35088V2.35088Z" fill="#12636E"/>
<path fill-rule="evenodd" clip-rule="evenodd" d="M23.4242 2.21468C23.8599 2.37249 24.2721 2.58722 24.6498 2.8531L25.7968 2.27896L27.1551 3.89274L26.368 4.89803C26.5627 5.31348 26.7007 5.75252 26.7784 6.20369L27.9996 6.59716L27.8028 8.68533L26.5277 8.84936C26.3676 9.27916 26.1497 9.68586 25.88 10.0586L26.4624 11.1891L24.8241 12.528L23.8054 11.7522C23.3849 11.9447 22.9402 12.0811 22.483 12.1578L22.0839 13.3626L19.9654 13.1676L19.8046 11.9129C19.3689 11.7551 18.9567 11.5404 18.579 11.2745L17.432 11.8475L16.0737 10.2337L16.8608 9.22843C16.6661 8.81298 16.5281 8.37394 16.4504 7.92277L15.2292 7.5293L15.4193 5.44113L16.6944 5.2771C16.854 4.84714 17.071 4.4401 17.3398 4.06676L16.7574 2.93733L18.3957 1.59842L19.4144 2.37428C19.8359 2.18134 20.2818 2.04527 20.7402 1.96973L21.1393 0.764931L23.2578 0.963329L23.4242 2.22022V2.21468ZM21.9197 4.83264C21.4702 4.79136 21.0183 4.88241 20.6213 5.09428C20.2242 5.30615 19.8998 5.62932 19.6891 6.02292C19.4784 6.41652 19.3909 6.86287 19.4376 7.30552C19.4842 7.74816 19.663 8.16723 19.9513 8.5097C20.2396 8.85218 20.6245 9.1027 21.0573 9.22956C21.49 9.35642 21.9512 9.35393 22.3825 9.22241C22.8139 9.09089 23.1959 8.83625 23.4804 8.49068C23.7649 8.14511 23.939 7.72415 23.9808 7.28102C24.0087 6.98684 23.9775 6.69013 23.8889 6.40784C23.8004 6.12556 23.6564 5.86323 23.4649 5.63585C23.2735 5.40848 23.0385 5.22051 22.7734 5.08269C22.5083 4.94487 22.2182 4.8599 21.9197 4.83264V4.83264Z" fill="#468CA2"/>
<path fill-rule="evenodd" clip-rule="evenodd" d="M42.7203 6.58546C43.156 6.74328 43.5682 6.958 43.946 7.22388L45.0929 6.64975L46.4512 8.26353L45.6641 9.26882C45.8588 9.68427 45.9968 10.1233 46.0746 10.5745L47.2957 10.968L47.0989 13.0561L45.8238 13.2202C45.6637 13.6499 45.4459 14.0566 45.1761 14.4294L45.7586 15.5599L44.1203 16.8988L43.1015 16.123C42.681 16.3155 42.2363 16.4519 41.7792 16.5286L41.38 17.7334L39.2616 17.5384L39.1008 16.2837C38.6651 16.1259 38.2529 15.9111 37.8751 15.6453L36.7282 16.2183L35.3698 14.6045L36.157 13.5992C35.9623 13.1838 35.8243 12.7447 35.7465 12.2936L34.5254 11.9001L34.7154 9.81192L35.9905 9.64788C36.1501 9.21793 36.3672 8.81089 36.636 8.43755L36.0535 7.30812L37.6918 5.96921L38.7106 6.74507C39.132 6.55213 39.578 6.41605 40.0363 6.34052L40.4355 5.13572L42.5539 5.33412L42.7203 6.59101V6.58546ZM41.2158 9.20343C40.7663 9.16215 40.3144 9.2532 39.9174 9.46507C39.5204 9.67694 39.196 10.0001 38.9853 10.3937C38.7746 10.7873 38.687 11.2337 38.7337 11.6763C38.7804 12.119 38.9592 12.538 39.2475 12.8805C39.5358 13.223 39.9207 13.4735 40.3534 13.6003C40.7862 13.7272 41.2474 13.7247 41.6787 13.5932C42.11 13.4617 42.4921 13.207 42.7766 12.8615C43.0611 12.5159 43.2352 12.0949 43.2769 11.6518C43.3048 11.3576 43.2736 11.0609 43.1851 10.7786C43.0966 10.4963 42.9525 10.234 42.7611 10.0066C42.5697 9.77927 42.3347 9.5913 42.0695 9.45348C41.8044 9.31566 41.5143 9.23069 41.2158 9.20343V9.20343Z" fill="#468CA2"/>
<path d="M5.55994 28.4456C6.96325 27.5401 7.3197 25.8054 7.30508 24.2338C7.30508 23.9722 7.33881 23.6973 7.21625 23.4645C7.09368 23.2318 6.8002 23.0688 6.5562 23.173C6.35492 23.2595 6.26272 23.4834 6.14578 23.6674C5.98986 23.9137 5.76651 24.1116 5.50147 24.2382C5.3283 24.3202 5.11578 24.3679 4.94937 24.2737C4.72448 24.144 4.70086 23.8303 4.70873 23.5721C4.72448 23.0873 4.73947 22.603 4.75371 22.119C4.77676 21.8588 4.75624 21.5967 4.69299 21.3431C4.65946 21.2175 4.59593 21.1017 4.5077 21.0053C4.41948 20.9089 4.30913 20.8347 4.18587 20.7889C3.93287 20.7135 3.61577 20.8488 3.55505 21.1015C3.54247 21.2089 3.53721 21.317 3.53931 21.4251C3.53953 21.4794 3.52341 21.5324 3.49298 21.5776C3.46255 21.6228 3.41919 21.6581 3.3684 21.6789C3.31313 21.684 3.25748 21.675 3.20671 21.6529C3.15594 21.6308 3.11174 21.5962 3.07829 21.5526C2.82228 21.2704 2.61488 20.9488 2.46434 20.6005C2.31403 20.2527 2.12228 19.9238 1.89312 19.6207C1.65024 19.3281 1.30954 19.0931 0.927227 19.0665C0.544916 19.0399 0.132244 19.2571 0.027671 19.6207C-0.0769024 19.9842 0.132244 20.3622 0.365004 20.6637C0.709479 21.1131 1.11814 21.5111 1.57828 21.8452C1.66787 21.8961 1.73874 21.9737 1.78068 22.0669C1.83353 22.242 1.66036 22.4094 1.48383 22.4626C1.28255 22.5224 1.06666 22.4969 0.858636 22.5158C0.650613 22.5346 0.421226 22.6188 0.338017 22.8084C0.225573 23.0722 0.443715 23.3559 0.662982 23.5432C1.10526 23.9202 1.60948 24.22 2.154 24.4299C2.35479 24.4891 2.543 24.5838 2.70947 24.7093C2.86465 24.8467 2.9546 25.0828 2.85453 25.2634C2.75445 25.4441 2.50707 25.4973 2.3013 25.4552C2.10288 25.3969 1.9099 25.322 1.72446 25.2313C1.36014 25.0883 0.885622 25.1016 0.642742 25.4053C0.567742 25.509 0.518496 25.6287 0.498966 25.7546C0.479435 25.8805 0.490167 26.0091 0.530297 26.1302C0.614283 26.371 0.746599 26.5926 0.919355 26.7819C1.48637 27.4776 2.23007 28.013 3.07492 28.3337C3.91937 28.6418 4.70761 28.7382 5.56106 28.4567" fill="#56ECC8"/>
<path d="M0.421143 19.2782L0.447004 19.3037L0.524591 19.3735C0.593182 19.4356 0.693258 19.5264 0.82032 19.6473C1.17889 19.9877 1.51115 20.3542 1.81433 20.7435C2.00661 20.9884 2.20676 21.2666 2.41591 21.5681C2.62505 21.8696 2.84432 22.1954 3.06359 22.5446C3.29484 22.9081 3.50544 23.2841 3.6944 23.6707C3.79335 23.8713 3.87993 24.0819 3.96764 24.2958C4.05535 24.5097 4.1453 24.727 4.23526 24.9475C4.57999 25.7711 4.87695 26.6134 5.1247 27.4702C5.32406 28.1709 5.45546 28.8887 5.51713 29.6138C5.55744 30.1027 5.55368 30.5942 5.50588 31.0824C5.48789 31.2542 5.47102 31.3883 5.45641 31.4792C5.44966 31.5225 5.44516 31.5568 5.44066 31.5823C5.43991 31.5941 5.43991 31.606 5.44066 31.6178C5.44445 31.6065 5.44746 31.5951 5.44966 31.5834C5.44966 31.5579 5.4609 31.5236 5.46878 31.4803C5.48677 31.3906 5.50701 31.2587 5.52837 31.0846C5.58349 30.5955 5.59252 30.1024 5.55536 29.6116C5.49887 28.8835 5.37045 28.1626 5.17192 27.4591C4.92592 26.5995 4.62969 25.7546 4.28473 24.9287C4.19328 24.707 4.10407 24.4901 4.01712 24.2781C3.92829 24.0642 3.84058 23.8525 3.74163 23.6496C3.5508 23.2619 3.33833 22.8848 3.10519 22.5202C2.8803 22.171 2.66216 21.8474 2.45301 21.5459C2.24387 21.2444 2.04034 20.9673 1.84469 20.7224C1.537 20.3338 1.19861 19.9699 0.832689 19.634C0.703378 19.5154 0.599929 19.4256 0.529089 19.3668L0.449254 19.2992C0.431263 19.2848 0.422267 19.2771 0.421143 19.2782Z" fill="#263238"/>
<path d="M3.72478 23.6474C3.73814 23.6116 3.74756 23.5744 3.75289 23.5366C3.76863 23.4645 3.78887 23.3615 3.81024 23.2318C3.85409 22.9735 3.90356 22.6155 3.95529 22.2209C4.00701 21.8263 4.06099 21.4694 4.10934 21.2123C4.13295 21.0848 4.15319 20.9806 4.16781 20.9086C4.17796 20.8724 4.184 20.8352 4.1858 20.7977C4.16877 20.833 4.15631 20.8702 4.14869 20.9086C4.12845 20.9784 4.10259 21.0815 4.07448 21.2089C4.01826 21.465 3.96204 21.8219 3.90694 22.2176C3.85184 22.6133 3.81023 22.9602 3.7765 23.2307C3.75963 23.3515 3.74502 23.4523 3.7349 23.5366C3.72719 23.573 3.72379 23.6102 3.72478 23.6474Z" fill="#263238"/>
<path d="M0.30542 22.9426C0.350074 22.9531 0.395627 22.9594 0.441478 22.9614C0.529185 22.9714 0.657372 22.9847 0.81367 23.0069C1.12739 23.0468 1.55918 23.1177 2.03145 23.2152C2.50371 23.3127 2.931 23.4225 3.23123 23.5078C3.38415 23.5499 3.50672 23.5876 3.59105 23.6131C3.63434 23.629 3.67918 23.6405 3.72486 23.6474C3.6838 23.6272 3.64134 23.6097 3.5978 23.5953C3.51459 23.5643 3.39315 23.5222 3.24135 23.4757C2.93887 23.3803 2.51496 23.2673 2.04157 23.1687C1.63738 23.083 1.22906 23.0176 0.818168 22.9725C0.659621 22.9548 0.531434 22.947 0.443727 22.9437C0.39778 22.9387 0.351443 22.9384 0.30542 22.9426V22.9426Z" fill="#263238"/>
<path d="M5.12817 27.3959C5.13815 27.3838 5.14647 27.3704 5.15291 27.356L5.21475 27.2363C5.2676 27.1322 5.34069 26.9803 5.4284 26.793C5.60381 26.4139 5.8287 25.883 6.06821 25.2945C6.30772 24.706 6.52923 24.1728 6.69565 23.7916L6.89468 23.3394L6.94865 23.2163C6.9599 23.1875 6.96552 23.172 6.96327 23.172C6.95401 23.1845 6.9461 23.1978 6.93966 23.2119L6.87781 23.3316C6.82384 23.4358 6.75187 23.5876 6.66417 23.7749C6.48875 24.154 6.26386 24.6849 6.02323 25.2734C5.7826 25.862 5.56333 26.3951 5.39579 26.7764C5.31483 26.9626 5.24737 27.1155 5.19677 27.2286L5.14392 27.3516C5.13675 27.3657 5.13145 27.3806 5.12817 27.3959V27.3959Z" fill="#263238"/>
<path d="M0.600098 25.8575C0.600098 25.8575 0.614715 25.8664 0.643951 25.8775L0.775511 25.9229L1.26127 26.0892C1.67057 26.2288 2.23392 26.4284 2.85573 26.65C3.47755 26.8717 4.04315 27.0657 4.45582 27.1976C4.66272 27.2641 4.82913 27.3151 4.94608 27.3484L5.07989 27.386C5.11137 27.3949 5.12824 27.3982 5.12824 27.396C5.11394 27.3882 5.09887 27.3819 5.08326 27.3772L4.9517 27.3306L4.46706 27.1655C4.05777 27.0258 3.49442 26.8263 2.8726 26.6046C2.25078 26.3829 1.68406 26.1878 1.27252 26.0559C1.06562 25.9905 0.898076 25.9384 0.782258 25.9052L0.647324 25.8675C0.631957 25.8626 0.616137 25.8593 0.600098 25.8575V25.8575Z" fill="#263238"/>
<path d="M41.0659 29.9969C42.7221 30.2544 44.169 29.2049 45.2302 28.0305C45.4086 27.8366 45.621 27.6552 45.6891 27.4016C45.7571 27.148 45.6511 26.8331 45.3994 26.7488C45.1915 26.6797 44.9705 26.7846 44.7585 26.8436C44.4751 26.9229 44.1748 26.9217 43.8923 26.8402C43.7082 26.7864 43.5184 26.6811 43.4595 26.5011C43.3815 26.2562 43.578 26.0081 43.76 25.8219C44.1023 25.4731 44.4437 25.1241 44.7844 24.7749C44.9789 24.5973 45.1425 24.3895 45.2686 24.1597C45.3295 24.0445 45.3614 23.9166 45.3619 23.7868C45.3624 23.6569 45.3313 23.5289 45.2713 23.4134C45.1355 23.1902 44.8086 23.0805 44.5913 23.2276C44.5087 23.2989 44.431 23.3755 44.3589 23.457C44.322 23.4974 44.2739 23.5261 44.2206 23.5394C44.1672 23.5528 44.1111 23.5502 44.0593 23.532C44.0149 23.4992 43.9799 23.4557 43.9574 23.4057C43.9349 23.3557 43.9257 23.3009 43.9307 23.2464C43.9337 22.8679 43.9996 22.4923 44.1258 22.1346C44.2517 21.7774 44.3342 21.4067 44.3713 21.0305C44.3911 20.6529 44.2993 20.2533 44.0345 19.9806C43.7697 19.7079 43.3161 19.5958 42.9907 19.796C42.6654 19.9962 42.5624 20.4147 42.529 20.7921C42.4774 21.3532 42.5084 21.9186 42.621 22.4706C42.6526 22.5676 42.6521 22.6721 42.6196 22.7689C42.5393 22.9336 42.297 22.943 42.13 22.8656C41.9403 22.7768 41.7979 22.615 41.6311 22.4913C41.4643 22.3677 41.237 22.2783 41.0462 22.3637C40.783 22.4848 40.7509 22.8394 40.7855 23.1233C40.8557 23.6953 41.0243 24.2512 41.2841 24.7671C41.3924 24.9438 41.4671 25.1385 41.5047 25.3417C41.5258 25.5462 41.4314 25.7807 41.2341 25.8484C41.0368 25.916 40.8174 25.7917 40.6939 25.6244C40.5868 25.4499 40.495 25.2667 40.4197 25.0767C40.2476 24.7297 39.8873 24.4255 39.5004 24.4898C39.3742 24.5171 39.2561 24.5731 39.1558 24.6535C39.0555 24.7339 38.9757 24.8363 38.9228 24.9526C38.8207 25.1866 38.7675 25.4385 38.7662 25.6931C38.7113 26.5838 38.8966 27.4727 39.3031 28.2694C39.7179 29.0566 40.2355 29.6497 41.0591 30.0058" fill="#45CDAC"/>
<path d="M43.5153 19.8026L43.5171 19.8386L43.5269 19.9417C43.5353 20.0331 43.5473 20.1666 43.559 20.3402C43.5921 20.8297 43.5881 21.3211 43.547 21.8101C43.5222 22.1188 43.4806 22.4574 43.4297 22.8191C43.3789 23.1809 43.3189 23.5674 43.2431 23.9711C43.1663 24.3935 43.0657 24.8114 42.9419 25.2229C42.8783 25.437 42.7988 25.6503 42.7178 25.8668C42.6368 26.0834 42.5552 26.3038 42.4714 26.5268C42.1648 27.3651 41.8102 28.1856 41.4092 28.9844C41.0789 29.6355 40.6867 30.2542 40.2378 30.8323C39.9342 31.2212 39.5963 31.5829 39.228 31.913C39.0975 32.0284 38.9936 32.1166 38.9208 32.1743C38.8863 32.2018 38.8596 32.2243 38.8389 32.2402C38.8302 32.2485 38.8222 32.2573 38.8147 32.2665C38.8251 32.2607 38.8352 32.2542 38.8448 32.247C38.8621 32.2281 38.8939 32.2101 38.9292 32.1833C39.0037 32.1287 39.1086 32.0443 39.2431 31.9295C39.6175 31.6036 39.9604 31.2442 40.2676 30.856C40.7223 30.2791 41.1189 29.66 41.4517 29.0074C41.8559 28.2077 42.2129 27.3857 42.5208 26.5456C42.6043 26.3208 42.6862 26.1011 42.7665 25.8864C42.8467 25.6692 42.9261 25.4543 42.9912 25.2385C43.1145 24.825 43.2144 24.405 43.2905 23.9806C43.3622 23.5731 43.4215 23.189 43.4723 22.8272C43.5231 22.4655 43.5615 22.1255 43.5838 21.8146C43.6211 21.3231 43.6189 20.8296 43.5772 20.3386C43.5624 20.1651 43.5471 20.0302 43.5347 19.9398L43.5217 19.8368C43.5183 19.8143 43.5169 19.8026 43.5153 19.8026Z" fill="#263238"/>
<path d="M42.9803 25.2271C43.0146 25.2093 43.0469 25.188 43.0766 25.1635C43.1374 25.1206 43.2227 25.0576 43.3269 24.9757C43.5354 24.8134 43.8161 24.5809 44.1233 24.3228C44.4306 24.0648 44.7139 23.8361 44.925 23.6776C45.0293 23.5988 45.1153 23.535 45.1753 23.4913C45.2074 23.4712 45.2373 23.4477 45.2641 23.4211C45.2275 23.436 45.1929 23.4553 45.1611 23.4787C45.0985 23.517 45.0091 23.5762 44.9014 23.6521C44.6853 23.8045 44.4004 24.0317 44.0898 24.2884C43.7793 24.5451 43.512 24.7745 43.3027 24.9526C43.2078 25.0309 43.1282 25.0959 43.0633 25.1516C43.0328 25.1735 43.0049 25.1988 42.9803 25.2271Z" fill="#263238"/>
<path d="M40.9288 22.4397C40.9547 22.477 40.9842 22.5119 41.0167 22.5438C41.0748 22.6093 41.1607 22.704 41.2613 22.8239C41.4664 23.0613 41.7377 23.3998 42.0208 23.7848C42.304 24.1699 42.5455 24.5342 42.7095 24.7963C42.794 24.9288 42.8591 25.0379 42.9041 25.1126C42.9253 25.1531 42.9506 25.1913 42.9798 25.2267C42.9632 25.1845 42.9436 25.1434 42.9212 25.1039C42.8808 25.0258 42.8196 24.9142 42.739 24.7791C42.58 24.5082 42.3433 24.1436 42.0601 23.757C41.8192 23.4259 41.5616 23.1069 41.2881 22.8014C41.1828 22.6833 41.0931 22.5927 41.0305 22.5321C40.9998 22.498 40.9658 22.4671 40.9288 22.4397V22.4397Z" fill="#263238"/>
<path d="M41.4644 28.9338C41.4801 28.9314 41.4954 28.9269 41.5099 28.9206L41.6373 28.8728C41.7475 28.8306 41.9051 28.7664 42.0978 28.6857C42.4861 28.5208 43.0145 28.2763 43.5931 27.9986C44.1717 27.721 44.6991 27.4726 45.0823 27.3002L45.5379 27.0968L45.6618 27.0413C45.6898 27.0274 45.7045 27.0196 45.7028 27.0181C45.6875 27.0212 45.6725 27.0259 45.6582 27.0321L45.5308 27.0799C45.4198 27.1213 45.263 27.1862 45.0703 27.267C44.682 27.4318 44.1536 27.6764 43.5742 27.9533C42.9948 28.2302 42.469 28.4801 42.085 28.6518C41.8981 28.7362 41.7439 28.8049 41.6293 28.8551L41.5063 28.9113C41.4914 28.917 41.4774 28.9245 41.4644 28.9338V28.9338Z" fill="#263238"/>
<path d="M39.1605 24.7941C39.1605 24.7941 39.1653 24.8103 39.1794 24.8379L39.2458 24.9587L39.492 25.4036C39.6997 25.7781 39.9807 26.299 40.2898 26.875C40.599 27.451 40.8854 27.9693 41.1009 28.3403C41.2087 28.5265 41.2971 28.6745 41.361 28.7766L41.4344 28.8931C41.4517 28.9205 41.4619 28.9342 41.4634 28.9325C41.4581 28.9173 41.4513 28.9026 41.4429 28.8888L41.3773 28.7672L41.1312 28.3239C40.9234 27.9494 40.6425 27.4285 40.3333 26.8525C40.0242 26.2764 39.7377 25.7566 39.523 25.3864C39.4144 25.2009 39.3259 25.0514 39.2629 24.95L39.1887 24.8328C39.1806 24.819 39.1712 24.806 39.1605 24.7941V24.7941Z" fill="#263238"/>
<path d="M40.8665 22.8368C43.2965 22.4494 44.8444 20.3303 45.7971 18.2108C45.9589 17.8595 46.1738 17.5102 46.1545 17.1252C46.1351 16.7402 45.8448 16.348 45.4553 16.3439C45.1336 16.3411 44.8722 16.5874 44.6026 16.7654C44.2425 17.0041 43.8225 17.138 43.391 17.1515C43.1095 17.1594 42.7969 17.0979 42.6334 16.8731C42.4139 16.5661 42.5765 16.1309 42.7467 15.7887C43.0675 15.1469 43.3871 14.5053 43.7054 13.8636C43.897 13.5279 44.0318 13.1637 44.1044 12.7858C44.1374 12.5973 44.1244 12.4042 44.0665 12.2226C44.0085 12.041 43.9074 11.8762 43.7715 11.7419C43.4809 11.4913 42.9748 11.4856 42.7376 11.7892C42.6543 11.926 42.5805 12.0681 42.5164 12.2145C42.4831 12.2875 42.4288 12.3493 42.3603 12.392C42.2918 12.4347 42.2122 12.4565 42.1317 12.4545C42.0549 12.4286 41.9863 12.3837 41.9323 12.324C41.8784 12.2643 41.8408 12.1918 41.8232 12.1135C41.6567 11.5832 41.5792 11.0288 41.5941 10.4721C41.6089 9.91628 41.5568 9.36128 41.439 8.81883C41.2963 8.28239 40.9877 7.76559 40.4947 7.50407C40.0017 7.24255 39.3174 7.29059 38.9532 7.71709C38.589 8.1436 38.6339 8.77474 38.7576 9.31711C38.9386 10.1242 39.237 10.9001 39.6435 11.6205C39.7314 11.7418 39.7778 11.8879 39.7761 12.0378C39.7382 12.3042 39.4039 12.4267 39.1358 12.3939C38.8305 12.3554 38.5586 12.1937 38.2698 12.0961C37.9809 11.9986 37.6232 11.9762 37.3951 12.1816C37.0821 12.4695 37.1972 12.9794 37.3735 13.3605C37.7297 14.128 38.2161 14.8285 38.8119 15.432C39.0428 15.6301 39.2351 15.8683 39.3793 16.1352C39.501 16.4114 39.4749 16.7816 39.2298 16.9652C38.9847 17.1487 38.6221 17.0741 38.374 16.896C38.1456 16.7006 37.9348 16.486 37.7438 16.2546C37.3468 15.8474 36.7063 15.585 36.1948 15.8494C36.0307 15.9444 35.8911 16.076 35.7872 16.2336C35.6833 16.3911 35.618 16.5703 35.5966 16.7566C35.5596 17.1296 35.5988 17.5054 35.7119 17.8617C36.0372 19.1309 36.697 20.2891 37.6244 21.2188C38.5591 22.1314 39.5497 22.7264 40.8611 22.8524" fill="#56ECC8"/>
<path d="M39.6893 7.4899L39.708 7.5394L39.7681 7.67898C39.8211 7.80283 39.8983 7.98397 39.9928 8.22122C40.26 8.89016 40.476 9.57838 40.6392 10.2801C40.7439 10.7226 40.8385 11.2144 40.9307 11.7427C41.0229 12.271 41.1135 12.8381 41.1897 13.4364C41.2729 14.0611 41.321 14.6903 41.3337 15.321C41.3414 15.6488 41.3265 15.9827 41.3111 16.3217C41.2957 16.6608 41.2812 17.0056 41.2646 17.3549C41.2145 18.6644 41.0893 19.9707 40.8895 21.2676C40.7218 22.3261 40.453 23.3675 40.0867 24.3777C39.838 25.058 39.5291 25.7157 39.1635 26.3431C39.0333 26.5632 38.9279 26.7333 38.8522 26.8467C38.8165 26.9008 38.7892 26.9443 38.7675 26.9758C38.7592 26.9912 38.7518 27.0072 38.7455 27.0235C38.7575 27.0106 38.7686 26.997 38.7788 26.9826C38.7945 26.9484 38.8308 26.9089 38.868 26.8555C38.9475 26.7456 39.056 26.5804 39.1921 26.3594C39.568 25.7351 39.885 25.0783 40.139 24.3973C40.514 23.3863 40.7887 22.3424 40.9593 21.2806C41.1631 19.981 41.291 18.6716 41.3422 17.3588C41.3574 17.0072 41.3727 16.6633 41.388 16.3271C41.4019 15.9874 41.416 15.6514 41.4096 15.3206C41.3952 14.6872 41.3453 14.0554 41.2602 13.4282C41.1765 12.8266 41.086 12.2632 40.9938 11.7348C40.9016 11.2065 40.8018 10.7142 40.6927 10.2698C40.523 9.56636 40.2973 8.87784 40.0175 8.21067C39.9186 7.97506 39.8363 7.79342 39.7782 7.67271L39.7137 7.53478C39.6986 7.50481 39.6914 7.48908 39.6893 7.4899Z" fill="#263238"/>
<path d="M41.3891 15.3095C41.4291 15.2692 41.4646 15.2249 41.4951 15.1773C41.5606 15.0898 41.6513 14.9634 41.7599 14.8019C41.978 14.4811 42.2653 14.0297 42.5781 13.5305C42.891 13.0313 43.1835 12.584 43.4069 12.2674C43.5172 12.1102 43.6085 11.9823 43.6725 11.8942C43.7084 11.8516 43.7395 11.8052 43.765 11.756C43.7206 11.7933 43.6809 11.8359 43.6471 11.8829C43.577 11.9647 43.4788 12.0878 43.3625 12.2423C43.1293 12.5529 42.8338 12.9988 42.5158 13.4975C42.1977 13.9962 41.9278 14.4374 41.7157 14.7805C41.6185 14.9328 41.5367 15.0595 41.4711 15.1666C41.4383 15.211 41.4108 15.2589 41.3891 15.3095Z" fill="#263238"/>
<path d="M37.2655 12.3413C37.3186 12.3817 37.3754 12.4171 37.4353 12.447C37.546 12.5122 37.7087 12.6058 37.9034 12.728C38.2969 12.967 38.8287 13.3175 39.398 13.7276C39.9672 14.1377 40.469 14.5377 40.8165 14.8298C40.9943 14.9767 41.1344 15.0998 41.231 15.1839C41.2789 15.2309 41.3315 15.2729 41.3881 15.3091C41.346 15.2576 41.3001 15.2091 41.251 15.1641C41.1593 15.0732 41.0234 14.9448 40.8498 14.7926C40.5056 14.4857 40.0104 14.0833 39.4403 13.671C38.9544 13.3171 38.4505 12.9878 37.9306 12.6845C37.7302 12.567 37.5641 12.4808 37.4492 12.4245C37.3911 12.3907 37.3295 12.3628 37.2655 12.3413V12.3413Z" fill="#263238"/>
<path d="M40.9438 21.1718C40.9646 21.1613 40.984 21.1482 41.0014 21.1328L41.1579 21.0086C41.2927 20.8999 41.484 20.7392 41.7167 20.5394C42.1848 20.134 42.8127 19.5539 43.4958 18.905C44.1788 18.2561 44.8036 17.671 45.2612 17.2573L45.806 16.7676L45.954 16.6342C45.9868 16.6022 46.0038 16.5847 46.0008 16.5833C45.9808 16.5946 45.962 16.6079 45.9447 16.623L45.7883 16.7472C45.652 16.8552 45.4622 17.0166 45.2295 17.2164C44.7614 17.6218 44.1334 18.2019 43.4489 18.8501C42.7643 19.4984 42.1425 20.0848 41.6835 20.4978C41.4605 20.7001 41.276 20.8656 41.1387 20.9876L40.9922 21.1216C40.974 21.1362 40.9577 21.1531 40.9438 21.1718V21.1718Z" fill="#263238"/>
<path d="M35.8573 16.4279C35.8573 16.4279 35.8713 16.4484 35.9034 16.4806L36.0507 16.6194L36.5954 17.1298C37.0546 17.5593 37.6821 18.1602 38.3739 18.8255C39.0656 19.4908 39.6996 20.0856 40.1681 20.5067C40.4028 20.7183 40.5931 20.8851 40.7284 20.9989L40.8835 21.1286C40.9199 21.1591 40.9404 21.1736 40.9417 21.1706C40.9275 21.1517 40.9113 21.1343 40.8934 21.1187L40.7469 20.9784L40.203 20.4701C39.7438 20.0407 39.1162 19.4397 38.4245 18.7744C37.7327 18.1092 37.0979 17.5122 36.6309 17.0918C36.3956 16.8817 36.2045 16.7127 36.0706 16.5995L35.9141 16.4692C35.8966 16.4536 35.8776 16.4397 35.8573 16.4279V16.4279Z" fill="#263238"/>
<path d="M39.2347 9.22081H7.24989C6.34507 9.22081 5.61157 9.94383 5.61157 10.8357V30.5904C5.61157 31.4823 6.34507 32.2053 7.24989 32.2053H39.2347C40.1395 32.2053 40.873 31.4823 40.873 30.5904V10.8357C40.873 9.94383 40.1395 9.22081 39.2347 9.22081Z" fill="#263238"/>
<path d="M4.13745 30.5062H42.3405V30.545C42.3405 31.0682 42.1296 31.57 41.7542 31.94C41.3789 32.31 40.8698 32.5179 40.339 32.5179H6.13896C5.60813 32.5179 5.09904 32.31 4.72368 31.94C4.34832 31.57 4.13745 31.0682 4.13745 30.545V30.5062V30.5062Z" fill="#263238"/>
<path d="M39.8285 10.1339H6.55847V29.544H39.8285V10.1339Z" fill="#E0E0E0"/>
<path d="M19.7661 30.5062L20.2406 31.2499H26.9108L27.3516 30.5062H19.7661Z" fill="#455A64"/>
<path d="M38.2992 11.4276H7.66821V29.5374H38.2992V11.4276Z" fill="#FAFAFA"/>
<path d="M8.97605 12.3198C8.97627 12.37 8.96136 12.4192 8.9332 12.4611C8.90504 12.503 8.86491 12.5357 8.81787 12.5551C8.77084 12.5745 8.71903 12.5797 8.66901 12.57C8.61899 12.5603 8.573 12.5362 8.53688 12.5008C8.50075 12.4653 8.47612 12.4201 8.46609 12.3708C8.45606 12.3215 8.4611 12.2704 8.48055 12.224C8.50001 12.1775 8.53301 12.1378 8.57538 12.1099C8.61775 12.0819 8.66758 12.067 8.71855 12.067C8.78665 12.067 8.85198 12.0936 8.90023 12.141C8.94849 12.1884 8.97575 12.2526 8.97605 12.3198V12.3198Z" fill="#455A64"/>
<path d="M10.0239 12.3198C10.0241 12.3701 10.0092 12.4193 9.98097 12.4612C9.95277 12.5031 9.91256 12.5359 9.86546 12.5552C9.81837 12.5746 9.7665 12.5797 9.71645 12.5699C9.66639 12.5602 9.62041 12.536 9.58433 12.5004C9.54825 12.4648 9.5237 12.4195 9.5138 12.3701C9.5039 12.3208 9.5091 12.2697 9.52873 12.2232C9.54836 12.1768 9.58153 12.1372 9.62405 12.1093C9.66657 12.0815 9.71651 12.0668 9.76753 12.067C9.83552 12.067 9.90073 12.0937 9.94881 12.1411C9.99689 12.1885 10.0239 12.2527 10.0239 12.3198V12.3198Z" fill="#455A64"/>
<path d="M11.0731 12.3198C11.0733 12.37 11.0584 12.4192 11.0302 12.4611C11.0021 12.503 10.962 12.5357 10.9149 12.5551C10.8679 12.5745 10.8161 12.5797 10.7661 12.57C10.716 12.5603 10.67 12.5362 10.6339 12.5008C10.5978 12.4653 10.5732 12.4201 10.5631 12.3708C10.5531 12.3215 10.5581 12.2704 10.5776 12.224C10.5971 12.1775 10.6301 12.1378 10.6724 12.1099C10.7148 12.0819 10.7646 12.067 10.8156 12.067C10.8494 12.0669 10.8828 12.0733 10.9141 12.0859C10.9453 12.0986 10.9737 12.1172 10.9976 12.1407C11.0215 12.1641 11.0405 12.1921 11.0535 12.2228C11.0664 12.2535 11.0731 12.2865 11.0731 12.3198V12.3198Z" fill="#455A64"/>
<path d="M38.2992 13.4282C38.2992 13.4448 31.4401 13.457 22.9843 13.457C14.5285 13.457 7.66821 13.4448 7.66821 13.4282C7.66821 13.4116 14.5273 13.3994 22.9843 13.3994C31.4412 13.3994 38.2992 13.4127 38.2992 13.4282Z" fill="#455A64"/>
<path d="M40.873 30.5215H5.61157V30.6325H40.873V30.5215Z" fill="#455A64"/>
<path d="M16.8785 22.2275H10.1791V22.6698H16.8785V22.2275Z" fill="#455A64"/>
<path d="M25.5323 16.0938H18.8329V16.536H25.5323V16.0938Z" fill="#455A64"/>
<path d="M35.4972 17.7397C35.4972 17.7553 31.7663 17.7686 27.165 17.7686C22.5638 17.7686 18.8329 17.7553 18.8329 17.7397C18.8329 17.7242 22.5627 17.7098 27.165 17.7098C31.7674 17.7098 35.4972 17.7231 35.4972 17.7397Z" fill="#455A64"/>
<path d="M35.4972 18.7041C35.4972 18.7196 31.7663 18.7329 27.165 18.7329C22.5638 18.7329 18.8329 18.7196 18.8329 18.7041C18.8329 18.6885 22.5627 18.6752 27.165 18.6752C31.7674 18.6752 35.4972 18.6919 35.4972 18.7041Z" fill="#455A64"/>
<path d="M35.4972 19.6683C35.4972 19.685 31.7663 19.6972 27.165 19.6972C22.5638 19.6972 18.8329 19.685 18.8329 19.6683C18.8329 19.6517 22.5627 19.6394 27.165 19.6394C31.7674 19.6394 35.4972 19.6528 35.4972 19.6683Z" fill="#455A64"/>
<path d="M35.4972 20.6337C35.4972 20.6493 31.7663 20.6626 27.165 20.6626C22.5638 20.6626 18.8329 20.6493 18.8329 20.6337C18.8329 20.6182 22.5627 20.6038 27.165 20.6038C31.7674 20.6038 35.4972 20.6171 35.4972 20.6337Z" fill="#455A64"/>
<path d="M35.4972 21.5981C35.4972 21.6136 31.7663 21.6269 27.165 21.6269C22.5638 21.6269 18.8329 21.6136 18.8329 21.5981C18.8329 21.5826 22.5627 21.5692 27.165 21.5692C31.7674 21.5692 35.4972 21.5814 35.4972 21.5981Z" fill="#455A64"/>
<path d="M25.3378 22.5623C25.3378 22.5778 23.8816 22.5911 22.0859 22.5911C20.2902 22.5911 18.8329 22.5778 18.8329 22.5623C18.8329 22.5468 20.2947 22.5335 22.0859 22.5335C23.8771 22.5335 25.3378 22.5468 25.3378 22.5623Z" fill="#455A64"/>
<path d="M35.3746 24.4344C35.3746 24.4511 32.9222 24.4633 29.8985 24.4633C26.8749 24.4633 24.4225 24.4511 24.4225 24.4344C24.4225 24.4177 26.8738 24.4055 29.8985 24.4055C32.9233 24.4055 35.3746 24.4188 35.3746 24.4344Z" fill="#455A64"/>
<path d="M35.3746 25.4585C35.3746 25.4741 32.9222 25.4874 29.8985 25.4874C26.8749 25.4874 24.4225 25.4741 24.4225 25.4585C24.4225 25.443 26.8738 25.4297 29.8985 25.4297C32.9233 25.4297 35.3746 25.443 35.3746 25.4585Z" fill="#455A64"/>
<path d="M35.3746 26.4826C35.3746 26.4981 32.9222 26.5114 29.8985 26.5114C26.8749 26.5114 24.4225 26.4981 24.4225 26.4826C24.4225 26.4671 26.8738 26.4539 29.8985 26.4539C32.9233 26.4539 35.3746 26.466 35.3746 26.4826Z" fill="#455A64"/>
<path d="M35.3746 27.5068C35.3746 27.5223 32.9222 27.5356 29.8985 27.5356C26.8749 27.5356 24.4225 27.5223 24.4225 27.5068C24.4225 27.4913 26.8738 27.478 29.8985 27.478C32.9233 27.478 35.3746 27.4902 35.3746 27.5068Z" fill="#455A64"/>
<path d="M16.8954 24.3369C16.8954 24.3524 15.4337 24.3657 13.6346 24.3657C11.8354 24.3657 10.3737 24.3524 10.3737 24.3369C10.3737 24.3214 11.8354 24.3082 13.6346 24.3082C15.4337 24.3082 16.8954 24.3203 16.8954 24.3369Z" fill="#455A64"/>
<path d="M16.8954 25.1405C16.8954 25.1572 15.4337 25.1694 13.6346 25.1694C11.8354 25.1694 10.3737 25.1572 10.3737 25.1405C10.3737 25.1238 11.8354 25.1116 13.6346 25.1116C15.4337 25.1116 16.8954 25.1205 16.8954 25.1405Z" fill="#455A64"/>
<path d="M16.8954 25.9451C16.8954 25.9606 15.4337 25.9739 13.6346 25.9739C11.8354 25.9739 10.3737 25.9606 10.3737 25.9451C10.3737 25.9296 11.8354 25.9163 13.6346 25.9163C15.4337 25.9163 16.8954 25.9296 16.8954 25.9451Z" fill="#455A64"/>
<path d="M16.8954 26.7487C16.8954 26.7653 15.4337 26.7775 13.6346 26.7775C11.8354 26.7775 10.3737 26.7653 10.3737 26.7487C10.3737 26.7321 11.8354 26.7199 13.6346 26.7199C15.4337 26.7199 16.8954 26.7332 16.8954 26.7487Z" fill="#455A64"/>
<path d="M16.8954 27.5589C16.8954 27.5744 15.4337 27.5877 13.6346 27.5877C11.8354 27.5877 10.3737 27.5744 10.3737 27.5589C10.3737 27.5433 11.8354 27.53 13.6346 27.53C15.4337 27.53 16.8954 27.5378 16.8954 27.5589Z" fill="#455A64"/>
<path d="M23.5814 23.9456H18.8284V28.4789H23.5814V23.9456Z" fill="#E0E0E0"/>
<path d="M23.2136 28.1042C23.2132 28.0979 23.2132 28.0916 23.2136 28.0854C23.2136 28.0721 23.2136 28.0543 23.2136 28.0322C23.2136 27.9845 23.2136 27.9213 23.2136 27.8282C23.2136 27.6487 23.2136 27.3849 23.208 27.0579C23.208 26.3929 23.208 25.453 23.199 24.3213L23.2181 24.3402H19.2016C19.2016 24.3402 19.2443 24.2981 19.2241 24.3191V26.3142C19.2241 26.9493 19.2241 27.5489 19.2241 28.102L19.2039 28.082L22.1083 28.092L22.9269 28.0976H23.1439H22.9303H22.1162L19.1994 28.1075H19.1802V28.0887C19.1802 27.5345 19.1802 26.936 19.1802 26.3009C19.1802 25.9839 19.1802 25.6569 19.1802 25.3244V24.3091C19.16 24.328 19.2072 24.2803 19.2027 24.2859H23.2192H23.2384V24.3047C23.2384 25.4419 23.2305 26.3885 23.2282 27.0546C23.2282 27.3871 23.2282 27.6409 23.2282 27.8194C23.2282 27.9058 23.2282 27.9723 23.2282 28.02C23.2282 28.041 23.2282 28.0577 23.2282 28.071C23.2256 28.0829 23.2206 28.0942 23.2136 28.1042Z" fill="#455A64"/>
<ellipse cx="9.94923" cy="22.1178" rx="0.466934" ry="0.431016" fill="#2C3F5B"/>
<ellipse cx="12.8228" cy="24.2011" rx="0.466934" ry="0.431016" fill="#2C3F5B"/>
<ellipse cx="13.0023" cy="27.1822" rx="0.431016" ry="0.395098" fill="#2C3F5B"/>
<ellipse cx="14.87" cy="22.5848" rx="0.35918" ry="0.323262" fill="#2C3F5B"/>
<path d="M10.1648 22.4411L12.8181 26.8413" stroke="black"/>
<path d="M14.7623 22.8362L13.2538 26.8949" stroke="black"/>
<path d="M14.5468 22.6207L13.146 23.9137" stroke="black"/>
<path d="M10.2007 22.477L12.4636 23.9856" stroke="black"/>
<path d="M12.8228 24.5244L13.0383 26.8231" stroke="black"/>
</svg>
