<svg width="36" height="36" viewBox="0 0 36 36" fill="none" xmlns="http://www.w3.org/2000/svg">
<path d="M32.6145 18.4965L19.1145 3.49651C18.546 2.86351 17.454 2.86351 16.8855 3.49651L3.38548 18.4965C3.19116 18.7119 3.06361 18.9791 3.01834 19.2656C2.97307 19.5522 3.01203 19.8457 3.13048 20.1105C3.37048 20.652 3.90748 21 4.49998 21H7.49998V31.5C7.49998 31.8978 7.65801 32.2794 7.93932 32.5607C8.22062 32.842 8.60215 33 8.99998 33H13.5C13.8978 33 14.2793 32.842 14.5606 32.5607C14.8419 32.2794 15 31.8978 15 31.5V25.5H21V31.5C21 31.8978 21.158 32.2794 21.4393 32.5607C21.7206 32.842 22.1022 33 22.5 33H27C27.3978 33 27.7793 32.842 28.0606 32.5607C28.3419 32.2794 28.5 31.8978 28.5 31.5V21H31.5C31.7905 21.0012 32.0751 20.9179 32.319 20.7602C32.563 20.6025 32.7558 20.3772 32.874 20.1118C32.9921 19.8465 33.0305 19.5524 32.9844 19.2656C32.9383 18.9788 32.8098 18.7115 32.6145 18.4965V18.4965Z" fill="#111453"/>
</svg>
